<svg width="10" height="9" viewBox="0 0 10 9" fill="none" xmlns="http://www.w3.org/2000/svg">
<path d="M7.69534 8.87514C7.62957 8.8754 7.56539 8.8549 7.51195 8.81655L5.00003 6.99546L2.48812 8.81655C2.43445 8.85548 2.3698 8.87632 2.30351 8.87608C2.23721 8.87584 2.17271 8.85452 2.11933 8.81521C2.06595 8.7759 2.02645 8.72063 2.00655 8.65739C1.98665 8.59415 1.98738 8.52623 2.00863 8.46343L2.98831 5.56167L0.449252 3.82046C0.394254 3.78278 0.352745 3.72851 0.330789 3.66557C0.308834 3.60262 0.307582 3.53431 0.327218 3.4706C0.346853 3.40689 0.386347 3.35113 0.439928 3.31147C0.493509 3.27181 0.55837 3.25032 0.625033 3.25015H3.75746L4.70277 0.340966C4.72313 0.278158 4.76287 0.223414 4.81627 0.184587C4.86968 0.145761 4.93401 0.124847 5.00003 0.124847C5.06606 0.124847 5.13039 0.145761 5.1838 0.184587C5.2372 0.223414 5.27693 0.278158 5.2973 0.340966L6.24261 3.25112H9.37503C9.44178 3.25109 9.50678 3.27243 9.56052 3.31202C9.61427 3.3516 9.65392 3.40735 9.67368 3.47111C9.69344 3.53487 9.69227 3.60327 9.67033 3.66631C9.6484 3.72935 9.60686 3.78371 9.55179 3.82143L7.01175 5.56167L7.99085 8.46265C8.00672 8.50961 8.01118 8.55968 8.00387 8.60871C7.99656 8.65775 7.97769 8.70434 7.94882 8.74464C7.91995 8.78494 7.88191 8.81779 7.83784 8.84048C7.79376 8.86317 7.74492 8.87506 7.69534 8.87514Z" fill="#FFAD30"/>
</svg>
